<svg width="30" height="30" viewBox="0 0 30 30" fill="none" xmlns="http://www.w3.org/2000/svg">
<g id="Google logo" clip-path="url(#clip0_1538_824)">
<path id="Vector" d="M29.9842 15.2807C29.9842 14.0516 29.8821 13.1547 29.6613 12.2245H15.2988V17.772H23.7292C23.5593 19.1506 22.6415 21.2268 20.6018 22.6219L20.5732 22.8077L25.1144 26.2454L25.429 26.2761C28.3184 23.6684 29.9842 19.8316 29.9842 15.2807Z" fill="#4285F4"/>
<path id="Vector_2" d="M15.2984 29.897C19.4286 29.897 22.8959 28.5682 25.4285 26.2761L20.6014 22.622C19.3097 23.5023 17.5759 24.1168 15.2984 24.1168C11.2531 24.1168 7.81979 21.5092 6.59589 17.905L6.4165 17.9199L1.69456 21.4909L1.63281 21.6586C4.14833 26.5418 9.31541 29.897 15.2984 29.897Z" fill="#34A853"/>
<path id="Vector_3" d="M6.5967 17.905C6.27377 16.9748 6.08687 15.9782 6.08687 14.9485C6.08687 13.9186 6.27377 12.9221 6.57971 11.992L6.57116 11.7939L1.79005 8.1655L1.63362 8.23821C0.596853 10.2646 0.00195312 12.5401 0.00195312 14.9485C0.00195312 17.3568 0.596853 19.6322 1.63362 21.6586L6.5967 17.905Z" fill="#FBBC05"/>
<path id="Vector_4" d="M15.2984 5.78004C18.1708 5.78004 20.1085 6.99252 21.2133 8.00576L25.5305 3.8866C22.8791 1.47824 19.4286 0 15.2984 0C9.31542 0 4.14834 3.35507 1.63281 8.2382L6.57891 11.992C7.8198 8.38774 11.2532 5.78004 15.2984 5.78004Z" fill="#EB4335"/>
</g>
<defs>
<clipPath id="clip0_1538_824">
<rect width="30" height="30" fill="white"/>
</clipPath>
</defs>
</svg>
